<svg width="420" height="220" viewBox="0 0 420 220" fill="none" xmlns="http://www.w3.org/2000/svg">
  <rect width="420" height="220" rx="24" fill="#1a2740"/>
  <text x="210" y="38" text-anchor="middle" font-size="22" fill="#47ffe5" font-family="Manrope,Arial,sans-serif">Tourabou - Flux logique</text>
  <rect x="30" y="70" width="90" height="38" rx="10" fill="#223355"/>
  <text x="75" y="93" text-anchor="middle" font-size="15" fill="#fff">main.py</text>
  <rect x="160" y="70" width="100" height="38" rx="10" fill="#223355"/>
  <text x="210" y="93" text-anchor="middle" font-size="15" fill="#fff">core/tourabou.py</text>
  <rect x="300" y="30" width="90" height="38" rx="10" fill="#223355"/>
  <text x="345" y="53" text-anchor="middle" font-size="13" fill="#fff">M1-4_Sigi/Bolo/...</text>
  <rect x="300" y="110" width="90" height="38" rx="10" fill="#223355"/>
  <text x="345" y="133" text-anchor="middle" font-size="13" fill="#fff">theme_actuel.txt</text>
  <polyline points="120,89 160,89" stroke="#47ffe5" stroke-width="3" marker-end="url(#arrow)"/>
  <polyline points="260,89 300,49" stroke="#8cf7a7" stroke-width="3" marker-end="url(#arrow)"/>
  <polyline points="260,89 300,129" stroke="#8cf7a7" stroke-width="3" marker-end="url(#arrow)"/>
  <polyline points="130,89 130,180 345,180 345,148" stroke="#47ffe5" stroke-width="2" fill="none" marker-end="url(#arrow)"/>
  <defs>
    <marker id="arrow" markerWidth="10" markerHeight="10" refX="10" refY="5" orient="auto" markerUnits="strokeWidth">
      <path d="M0,0 L10,5 L0,10 Z" fill="#47ffe5" />
    </marker>
  </defs>
</svg>